<?xml version="1.0" standalone="no"?>
<!DOCTYPE svg PUBLIC "-//W3C//DTD SVG 20010904//EN"
 "http://www.w3.org/TR/2001/REC-SVG-20010904/DTD/svg10.dtd">
<svg version="1.0" xmlns="http://www.w3.org/2000/svg"
 width="388.000000pt" height="50.000000pt" viewBox="0 0 388.000000 50.000000"
 preserveAspectRatio="xMidYMid meet">

<g transform="translate(0.000000,50.000000) scale(0.100000,-0.100000)"
fill="#000000" stroke="none">
<path d="M235 410 c-8 -25 1 -40 25 -40 18 0 20 -10 22 -137 3 -127 5 -138 22
-141 11 -3 25 3 32 12 10 14 13 15 24 1 8 -9 29 -15 57 -15 78 0 126 74 108
166 -9 52 -45 84 -94 84 -22 0 -43 -4 -46 -10 -15 -24 -25 -6 -25 45 l0 55
-59 0 c-51 0 -61 -3 -66 -20z m205 -149 c25 -47 5 -111 -35 -111 -27 0 -45 25
-45 65 0 40 18 65 45 65 14 0 29 -8 35 -19z"/>
<path d="M2025 410 c-8 -26 1 -40 26 -40 18 0 19 -8 19 -105 0 -103 -1 -106
-25 -115 -26 -10 -31 -25 -16 -48 5 -9 29 -12 82 -10 69 3 74 5 77 26 3 17 -2
25 -17 29 -20 5 -21 12 -21 144 l0 139 -59 0 c-51 0 -61 -3 -66 -20z"/>
<path d="M2205 410 c-8 -26 1 -40 26 -40 18 0 19 -8 19 -105 0 -103 -1 -106
-25 -115 -26 -10 -31 -25 -16 -48 5 -9 29 -12 82 -10 69 3 74 5 77 26 3 17 -2
25 -17 29 -20 5 -21 12 -21 144 l0 139 -59 0 c-51 0 -61 -3 -66 -20z"/>
<path d="M2967 413 c-4 -3 -7 -21 -7 -39 0 -26 -4 -33 -22 -36 -30 -4 -37 -38
-9 -45 19 -5 21 -13 21 -84 0 -97 15 -119 84 -119 36 0 48 5 65 26 25 31 27
76 6 94 -23 19 -45 4 -45 -30 0 -20 -5 -30 -15 -30 -12 0 -15 14 -15 69 l0 70
38 3 c29 2 37 7 37 23 0 16 -8 21 -37 23 -37 3 -38 4 -38 43 0 36 -2 39 -28
39 -16 0 -32 -3 -35 -7z"/>
<path d="M601 324 c-66 -47 -66 -172 1 -218 26 -19 106 -21 141 -5 31 14 48
49 35 72 -12 22 -30 21 -61 -3 -41 -32 -87 -21 -87 22 0 15 11 18 78 20 l77 3
-1 39 c-2 57 -38 86 -107 86 -32 0 -62 -6 -76 -16z m107 -51 c2 -9 -9 -13 -37
-13 -32 0 -39 3 -34 16 7 18 64 16 71 -3z"/>
<path d="M871 324 c-66 -47 -66 -172 1 -218 26 -19 106 -21 141 -5 31 14 48
49 35 72 -12 22 -30 21 -61 -3 -41 -32 -87 -21 -87 22 0 15 11 18 78 20 l77 3
-1 39 c-2 57 -38 86 -107 86 -32 0 -62 -6 -76 -16z m107 -51 c2 -9 -9 -13 -37
-13 -32 0 -39 3 -34 16 7 18 64 16 71 -3z"/>
<path d="M1094 325 c-9 -23 3 -45 26 -45 18 0 20 -6 20 -64 0 -59 -2 -65 -22
-68 -17 -2 -23 -10 -23 -28 0 -24 2 -25 81 -28 63 -2 84 1 94 12 18 22 5 46
-25 46 -23 0 -25 4 -25 44 0 29 7 52 20 67 16 20 19 21 20 7 0 -22 45 -35 65
-18 21 17 19 53 -3 73 -25 23 -78 21 -102 -3 l-20 -20 0 20 c0 17 -7 20 -50
20 -36 0 -52 -4 -56 -15z"/>
<path d="M1527 319 c-56 -43 -60 -148 -7 -201 24 -24 36 -28 83 -28 45 0 61 5
86 26 33 27 39 52 19 72 -19 19 -44 14 -62 -13 -42 -65 -113 15 -76 86 15 28
58 25 62 -3 6 -47 78 -30 78 17 0 60 -126 90 -183 44z"/>
<path d="M1792 324 c-12 -8 -29 -28 -37 -44 -30 -58 -12 -140 37 -174 30 -22
126 -21 157 0 47 33 65 119 36 174 -23 44 -53 60 -115 60 -34 0 -64 -6 -78
-16z m118 -63 c26 -50 4 -111 -40 -111 -33 0 -50 23 -50 65 0 14 5 35 10 46
14 26 66 26 80 0z"/>
<path d="M2431 324 c-66 -47 -66 -172 1 -218 26 -19 106 -21 141 -5 31 14 48
49 35 72 -12 22 -30 21 -61 -3 -41 -32 -87 -21 -87 22 0 15 11 18 78 20 l77 3
-1 39 c-2 57 -38 86 -107 86 -32 0 -62 -6 -76 -16z m107 -51 c2 -9 -9 -13 -37
-13 -32 0 -39 3 -34 16 7 18 64 16 71 -3z"/>
<path d="M2697 319 c-56 -43 -60 -148 -7 -201 24 -24 36 -28 83 -28 45 0 61 5
86 26 33 27 39 52 19 72 -19 19 -44 14 -62 -13 -42 -65 -113 15 -76 86 15 28
58 25 62 -3 6 -47 78 -30 78 17 0 60 -126 90 -183 44z"/>
<path d="M3182 324 c-68 -48 -68 -170 0 -218 30 -22 126 -21 157 0 47 33 65
119 36 174 -23 44 -53 60 -115 60 -34 0 -64 -6 -78 -16z m118 -63 c26 -50 4
-111 -40 -111 -33 0 -50 23 -50 65 0 14 5 35 10 46 14 26 66 26 80 0z"/>
<path d="M3414 325 c-9 -23 3 -45 26 -45 18 0 20 -6 20 -64 0 -59 -2 -65 -22
-68 -17 -2 -23 -10 -23 -28 0 -24 2 -25 81 -28 63 -2 84 1 94 12 18 22 5 46
-25 46 -23 0 -25 4 -25 44 0 29 7 52 20 67 16 20 19 21 20 7 0 -22 45 -35 65
-18 21 17 19 53 -3 73 -25 23 -78 21 -102 -3 l-20 -20 0 20 c0 17 -7 20 -50
20 -36 0 -52 -4 -56 -15z"/>
</g>
</svg>
