<?xml version="1.0" standalone="no"?>
<!DOCTYPE svg PUBLIC "-//W3C//DTD SVG 20010904//EN"
 "http://www.w3.org/TR/2001/REC-SVG-20010904/DTD/svg10.dtd">
<svg version="1.0" xmlns="http://www.w3.org/2000/svg"
 width="183.000000pt" height="21.000000pt" viewBox="0 0 183.000000 21.000000"
 preserveAspectRatio="xMidYMid meet">

<g transform="translate(0.000000,21.000000) scale(0.100000,-0.100000)"
fill="#000000" stroke="none">
<path d="M120 199 c-12 -8 -10 -9 8 -4 13 4 30 1 40 -7 15 -12 16 -11 3 5 -15
19 -29 21 -51 6z"/>
<path d="M290 170 c0 -5 5 -10 10 -10 6 0 10 -24 10 -53 l0 -54 42 1 c37 1 44
5 52 29 13 36 -3 62 -38 62 -18 -1 -26 4 -26 17 0 13 -8 18 -25 18 -14 0 -25
-4 -25 -10z m90 -69 c0 -23 -9 -31 -26 -24 -17 6 -18 25 -2 41 14 14 28 6 28
-17z"/>
<path d="M1010 170 c0 -5 5 -10 10 -10 6 0 10 -20 10 -45 0 -25 -4 -45 -10
-45 -5 0 -10 -4 -10 -10 0 -6 30 -10 70 -10 64 0 86 9 60 25 -5 3 -10 28 -10
56 0 46 -2 49 -25 49 -14 0 -25 -4 -25 -10 0 -5 5 -10 10 -10 6 0 10 -21 10
-46 0 -38 -3 -45 -17 -42 -14 2 -19 15 -21 56 -3 48 -5 52 -28 52 -13 0 -24
-4 -24 -10z"/>
<path d="M1390 166 c0 -8 -6 -16 -12 -19 -10 -3 -10 -7 -1 -18 6 -8 13 -27 15
-44 2 -24 8 -30 28 -30 18 0 26 6 28 23 4 23 -13 31 -21 10 -3 -7 -6 -1 -6 15
-1 18 4 27 14 27 8 0 15 5 15 10 0 6 -7 10 -15 10 -8 0 -15 7 -15 15 0 8 -7
15 -15 15 -8 0 -15 -6 -15 -14z"/>
<path d="M70 85 l0 -85 65 0 c60 0 65 2 66 23 1 12 1 26 0 31 -1 5 4 6 11 3
10 -3 13 4 10 29 -2 19 -8 37 -13 40 -5 3 -9 14 -9 25 0 15 -6 19 -32 18 -31
-2 -31 -2 -5 -6 26 -4 27 -7 27 -59 l0 -54 -55 0 -55 0 1 58 c0 44 2 52 9 35
12 -30 27 -29 32 2 3 14 2 25 -3 25 -4 0 -10 -10 -12 -22 l-4 -23 -2 23 c0 12
-8 22 -16 22 -12 0 -15 -16 -15 -85z m137 -2 c-3 -10 -5 -4 -5 12 0 17 2 24 5
18 2 -7 2 -21 0 -30z m-107 -58 c0 -8 -4 -15 -10 -15 -5 0 -10 7 -10 15 0 8 5
15 10 15 6 0 10 -7 10 -15z m30 0 c0 -8 -4 -15 -10 -15 -5 0 -10 7 -10 15 0 8
5 15 10 15 6 0 10 -7 10 -15z m30 0 c0 -8 -4 -15 -10 -15 -5 0 -10 7 -10 15 0
8 5 15 10 15 6 0 10 -7 10 -15z m30 0 c0 -8 -4 -15 -10 -15 -5 0 -10 7 -10 15
0 8 5 15 10 15 6 0 10 -7 10 -15z"/>
<path d="M436 134 c-9 -8 -16 -24 -16 -34 0 -42 63 -67 89 -36 14 17 1 28 -19
16 -16 -10 -42 -2 -34 11 3 5 18 9 35 9 30 0 38 17 17 38 -17 17 -54 15 -72
-4z"/>
<path d="M546 134 c-9 -8 -16 -24 -16 -34 0 -42 63 -67 89 -36 14 17 1 28 -19
16 -16 -10 -42 -2 -34 11 3 5 18 9 35 9 30 0 38 17 17 38 -17 17 -54 15 -72
-4z"/>
<path d="M640 140 c0 -6 5 -10 10 -10 6 0 10 -13 10 -30 0 -16 -4 -30 -10 -30
-5 0 -10 -4 -10 -10 0 -5 16 -10 35 -10 39 0 40 2 24 29 -9 13 -9 23 -1 37 6
10 12 13 12 7 0 -7 7 -13 16 -13 9 0 14 7 12 18 -2 13 -15 18 -51 19 -26 1
-47 -2 -47 -7z"/>
<path d="M806 134 c-41 -40 3 -99 58 -78 9 3 16 12 16 20 0 17 -12 18 -26 4
-8 -8 -15 -6 -24 5 -11 13 -11 19 3 33 11 10 17 12 17 4 0 -7 7 -12 15 -12 20
0 19 26 -1 34 -25 10 -42 7 -58 -10z"/>
<path d="M916 134 c-9 -8 -16 -24 -16 -34 0 -40 60 -66 88 -38 15 15 15 61 0
76 -17 17 -54 15 -72 -4z m54 -34 c0 -26 -15 -33 -30 -15 -10 12 -10 18 0 30
15 18 30 11 30 -15z"/>
<path d="M1166 134 c-9 -8 -16 -24 -16 -34 0 -42 63 -67 89 -36 14 17 1 28
-19 16 -16 -10 -42 -2 -34 11 3 5 18 9 35 9 30 0 38 17 17 38 -17 17 -54 15
-72 -4z"/>
<path d="M1276 134 c-41 -40 3 -99 58 -78 9 3 16 12 16 20 0 17 -12 18 -26 4
-8 -8 -15 -6 -24 5 -11 13 -11 19 3 33 11 10 17 12 17 4 0 -7 7 -12 15 -12 20
0 19 26 -1 34 -25 10 -42 7 -58 -10z"/>
<path d="M1476 134 c-32 -31 -8 -84 38 -84 29 0 46 18 46 50 0 14 -5 31 -12
38 -17 17 -54 15 -72 -4z m54 -34 c0 -26 -15 -33 -30 -15 -10 12 -10 18 0 30
15 18 30 11 30 -15z"/>
<path d="M1570 140 c0 -6 5 -10 10 -10 6 0 10 -13 10 -30 0 -16 -4 -30 -10
-30 -5 0 -10 -4 -10 -10 0 -5 16 -10 35 -10 39 0 40 2 24 29 -9 13 -9 23 -1
37 6 10 12 13 12 7 0 -7 7 -13 16 -13 9 0 14 7 12 18 -2 13 -15 18 -51 19 -26
1 -47 -2 -47 -7z"/>
<path d="M232 95 c0 -16 2 -22 5 -12 2 9 2 23 0 30 -3 6 -5 -1 -5 -18z"/>
</g>
</svg>
